<svg width="66" height="61" viewBox="0 0 66 61" fill="none" xmlns="http://www.w3.org/2000/svg">
<path id="Vector" d="M65.9999 30.25C66.0076 31.1294 65.7138 31.9891 65.1594 32.7097C64.605 33.4303 63.8175 33.9759 62.9064 34.2706L44.2078 40.4526L37.4116 57.4529C37.0768 58.2738 36.4737 58.9819 35.6833 59.4819C34.8929 59.982 33.9531 60.25 32.9902 60.25C32.0274 60.25 31.0876 59.982 30.2972 59.4819C29.5068 58.9819 28.9036 58.2738 28.5688 57.4529L21.7707 40.4337L3.07595 34.2706C2.17317 33.9662 1.39451 33.4177 0.844629 32.699C0.294748 31.9802 0 31.1256 0 30.25C0 29.3744 0.294748 28.5198 0.844629 27.801C1.39451 27.0823 2.17317 26.5338 3.07595 26.2293L21.7896 20.0474L28.5688 3.04715C28.9036 2.22619 29.5068 1.51811 30.2972 1.01807C31.0876 0.518032 32.0274 0.25 32.9902 0.25C33.9531 0.25 34.8929 0.518032 35.6833 1.01807C36.4737 1.51811 37.0768 2.22619 37.4116 3.04715L44.2097 20.0646L62.9045 26.2293C63.816 26.5238 64.6039 27.0693 65.1587 27.7899C65.7134 28.5105 66.0074 29.3704 65.9999 30.25Z" fill="#AD28EB"/>
</svg>
